<svg xmlns="http://www.w3.org/2000/svg" xmlns:xlink="http://www.w3.org/1999/xlink" preserveAspectRatio="xMidYMid meet" width="36" height="36" viewBox="0 0 36 36" style="width:100%;height:100%"><defs><animate repeatCount="indefinite" dur="0.64s" begin="0s" xlink:href="#_R_G_L_3_G_M" fill="freeze" attributeName="opacity" from="0" to="1" keyTimes="0;0.75;0.7500063;1" values="0;0;1;1" keySplines="0 0 0 0;0 0 0 0;0 0 0 0" calcMode="spline"/><animate repeatCount="indefinite" dur="0.64s" begin="0s" xlink:href="#_R_G_L_2_G_M" fill="freeze" attributeName="opacity" from="0" to="0" keyTimes="0;0.5;0.5000063;0.75;0.7500001;1" values="0;0;1;1;0;0" keySplines="0 0 0 0;0 0 0 0;0 0 0 0;0 0 0 0;0 0 0 0" calcMode="spline"/><animate repeatCount="indefinite" dur="0.64s" begin="0s" xlink:href="#_R_G_L_1_G_M" fill="freeze" attributeName="opacity" from="0" to="0" keyTimes="0;0.25;0.2500063;0.5;0.5000001;1" values="0;0;1;1;0;0" keySplines="0 0 0 0;0 0 0 0;0 0 0 0;0 0 0 0;0 0 0 0" calcMode="spline"/><animate repeatCount="indefinite" dur="0.64s" begin="0s" xlink:href="#_R_G_L_0_G_M" fill="freeze" attributeName="opacity" from="1" to="0" keyTimes="0;0.25;0.2500001;1" values="1;1;0;0" keySplines="0 0 0 0;0 0 0 0;0 0 0 0" calcMode="spline"/><animate attributeType="XML" attributeName="opacity" dur="1s" from="0" to="1" xlink:href="#time_group"/></defs><g id="_R_G"><g id="_R_G_L_7_G" transform=" translate(9, 27) translate(0, 0)"><path id="_R_G_L_7_G_D_0_P_0" fill="#000000" fill-opacity="0.1" fill-rule="nonzero" d=" M8 -8 C8,-8 8,8 8,8 C8,8 -8,8 -8,8 C-8,8 -8,-8 -8,-8 C-8,-8 8,-8 8,-8z "/><path id="_R_G_L_7_G_D_1_P_0" stroke="#ffffff" stroke-linecap="round" stroke-linejoin="round" fill="none" stroke-width="0" stroke-opacity="1" d=" M8 -8 C8,-8 8,8 8,8 C8,8 -8,8 -8,8 C-8,8 -8,-8 -8,-8 C-8,-8 8,-8 8,-8z "/></g><g id="_R_G_L_6_G" transform=" translate(27, 27) translate(0, 0)"><path id="_R_G_L_6_G_D_0_P_0" fill="#000000" fill-opacity="0.15" fill-rule="nonzero" d=" M8 -8 C8,-8 8,8 8,8 C8,8 -8,8 -8,8 C-8,8 -8,-8 -8,-8 C-8,-8 8,-8 8,-8z "/><path id="_R_G_L_6_G_D_1_P_0" stroke="#ffffff" stroke-linecap="round" stroke-linejoin="round" fill="none" stroke-width="0" stroke-opacity="1" d=" M8 -8 C8,-8 8,8 8,8 C8,8 -8,8 -8,8 C-8,8 -8,-8 -8,-8 C-8,-8 8,-8 8,-8z "/></g><g id="_R_G_L_5_G" transform=" translate(27, 9) translate(0, 0)"><path id="_R_G_L_5_G_D_0_P_0" fill="#000000" fill-opacity="0.1" fill-rule="nonzero" d=" M8 -8 C8,-8 8,8 8,8 C8,8 -8,8 -8,8 C-8,8 -8,-8 -8,-8 C-8,-8 8,-8 8,-8z "/><path id="_R_G_L_5_G_D_1_P_0" stroke="#ffffff" stroke-linecap="round" stroke-linejoin="round" fill="none" stroke-width="0" stroke-opacity="1" d=" M8 -8 C8,-8 8,8 8,8 C8,8 -8,8 -8,8 C-8,8 -8,-8 -8,-8 C-8,-8 8,-8 8,-8z "/></g><g id="_R_G_L_4_G" transform=" translate(9, 9) translate(0, 0)"><path id="_R_G_L_4_G_D_0_P_0" fill="#000000" fill-opacity="0.15" fill-rule="nonzero" d=" M8 -8 C8,-8 8,8 8,8 C8,8 -8,8 -8,8 C-8,8 -8,-8 -8,-8 C-8,-8 8,-8 8,-8z "/><path id="_R_G_L_4_G_D_1_P_0" stroke="#ffffff" stroke-linecap="round" stroke-linejoin="round" fill="none" stroke-width="0" stroke-opacity="1" d=" M8 -8 C8,-8 8,8 8,8 C8,8 -8,8 -8,8 C-8,8 -8,-8 -8,-8 C-8,-8 8,-8 8,-8z "/></g><g id="_R_G_L_3_G_M"><g id="_R_G_L_3_G" transform=" translate(9, 27) translate(0, 0)"><path id="_R_G_L_3_G_D_0_P_0" fill="#000000" fill-opacity="0.05" fill-rule="nonzero" d=" M8 -8 C8,-8 8,8 8,8 C8,8 -8,8 -8,8 C-8,8 -8,-8 -8,-8 C-8,-8 8,-8 8,-8z "/><path id="_R_G_L_3_G_D_1_P_0" stroke="#ffffff" stroke-linecap="round" stroke-linejoin="round" fill="none" stroke-width="0" stroke-opacity="1" d=" M8 -8 C8,-8 8,8 8,8 C8,8 -8,8 -8,8 C-8,8 -8,-8 -8,-8 C-8,-8 8,-8 8,-8z "/></g></g><g id="_R_G_L_2_G_M"><g id="_R_G_L_2_G" transform=" translate(27, 27) translate(0, 0)"><path id="_R_G_L_2_G_D_0_P_0" fill="#000000" fill-opacity="0.05" fill-rule="nonzero" d=" M8 -8 C8,-8 8,8 8,8 C8,8 -8,8 -8,8 C-8,8 -8,-8 -8,-8 C-8,-8 8,-8 8,-8z "/><path id="_R_G_L_2_G_D_1_P_0" stroke="#ffffff" stroke-linecap="round" stroke-linejoin="round" fill="none" stroke-width="0" stroke-opacity="1" d=" M8 -8 C8,-8 8,8 8,8 C8,8 -8,8 -8,8 C-8,8 -8,-8 -8,-8 C-8,-8 8,-8 8,-8z "/></g></g><g id="_R_G_L_1_G_M"><g id="_R_G_L_1_G" transform=" translate(27, 9) translate(0, 0)"><path id="_R_G_L_1_G_D_0_P_0" fill="#000000" fill-opacity="0.05" fill-rule="nonzero" d=" M8 -8 C8,-8 8,8 8,8 C8,8 -8,8 -8,8 C-8,8 -8,-8 -8,-8 C-8,-8 8,-8 8,-8z "/><path id="_R_G_L_1_G_D_1_P_0" stroke="#ffffff" stroke-linecap="round" stroke-linejoin="round" fill="none" stroke-width="0" stroke-opacity="1" d=" M8 -8 C8,-8 8,8 8,8 C8,8 -8,8 -8,8 C-8,8 -8,-8 -8,-8 C-8,-8 8,-8 8,-8z "/></g></g><g id="_R_G_L_0_G_M"><g id="_R_G_L_0_G" transform=" translate(9, 9) translate(0, 0)"><path id="_R_G_L_0_G_D_0_P_0" fill="#000000" fill-opacity="0.05" fill-rule="nonzero" d=" M8 -8 C8,-8 8,8 8,8 C8,8 -8,8 -8,8 C-8,8 -8,-8 -8,-8 C-8,-8 8,-8 8,-8z "/><path id="_R_G_L_0_G_D_1_P_0" stroke="#ffffff" stroke-linecap="round" stroke-linejoin="round" fill="none" stroke-width="0" stroke-opacity="1" d=" M8 -8 C8,-8 8,8 8,8 C8,8 -8,8 -8,8 C-8,8 -8,-8 -8,-8 C-8,-8 8,-8 8,-8z "/></g></g></g><g id="time_group"/></svg>