<?xml version="1.0" encoding="UTF-8"?>
<svg width="101px" height="17px" viewBox="0 0 101 17" version="1.1" xmlns="http://www.w3.org/2000/svg" xmlns:xlink="http://www.w3.org/1999/xlink">
    <title>Readhub 24</title>
    <g id="页面-1" stroke="none" stroke-width="1" fill="none" fill-rule="evenodd">
        <g id="Readhub-24" fill="currentColor" fill-rule="nonzero">
            <path d="M12.504,7.608 C12.392,7.672 12.284,7.72 12.18,7.752 C12.076,7.784 11.96,7.824 11.832,7.872 C12.04,7.984 12.228,8.104 12.396,8.232 C12.564,8.36 12.704,8.512 12.816,8.688 C13.008,8.976 13.156,9.34 13.26,9.78 C13.364,10.22 13.416,10.752 13.416,11.376 L13.416,12.456 C13.4,12.504 13.392,12.592 13.392,12.72 C13.392,13.616 13.616,14.064 14.064,14.064 C14.528,14.064 14.76,13.504 14.76,12.384 L14.76,11.712 L14.736,11.136 L14.736,10.8 C14.736,10.56 14.744,10.352 14.76,10.176 C14.776,10 14.808,9.856 14.856,9.744 C15.016,9.36 15.376,9.168 15.936,9.168 C16.752,9.168 17.16,9.6 17.16,10.464 C17.16,10.48 17.16,10.54 17.16,10.644 C17.16,10.748 17.152,10.864 17.136,10.992 C17.136,11.072 17.132,11.156 17.124,11.244 C17.116,11.332 17.112,11.408 17.112,11.472 C17.096,11.632 17.088,11.76 17.088,11.856 C17.088,11.952 17.088,12.024 17.088,12.072 L17.088,12.648 C17.104,12.712 17.112,12.78 17.112,12.852 C17.112,12.924 17.112,12.992 17.112,13.056 C17.112,14.064 16.828,14.844 16.26,15.396 C15.692,15.948 14.896,16.224 13.872,16.224 C11.808,16.224 10.776,15.2 10.776,13.152 L10.776,12.456 L10.8,11.688 L10.8,11.184 C10.8,10.24 10.64,9.648 10.32,9.408 C10,9.104 9.28,8.952 8.16,8.952 L6.024,8.952 C5.8,8.952 5.688,9.144 5.688,9.528 L5.688,11.304 C5.688,11.864 5.692,12.3 5.7,12.612 C5.708,12.924 5.712,13.12 5.712,13.2 L5.712,13.176 C5.84,13.784 6.096,14.088 6.48,14.088 C6.624,14.088 6.76,14.072 6.888,14.04 C7.144,13.992 7.368,13.968 7.56,13.968 C8.312,13.968 8.688,14.336 8.688,15.072 C8.688,15.84 8.208,16.224 7.248,16.224 C7.216,16.208 7.184,16.2 7.152,16.2 C7.056,16.2 6.976,16.192 6.912,16.176 L5.688,16.008 C5.432,15.976 5.208,15.952 5.016,15.936 C4.824,15.92 4.64,15.912 4.464,15.912 C4.368,15.912 4.228,15.928 4.044,15.96 C3.86,15.992 3.668,16.024 3.468,16.056 C3.268,16.088 3.068,16.124 2.868,16.164 C2.668,16.204 2.496,16.232 2.352,16.248 C2.176,16.248 2.036,16.256 1.932,16.272 C1.828,16.288 1.648,16.272 1.392,16.224 C0.464,16.224 0,15.84 0,15.072 C0,14.368 0.368,14.016 1.104,14.016 C1.12,14.016 1.144,14.02 1.176,14.028 C1.208,14.036 1.256,14.04 1.32,14.04 C1.368,14.04 1.432,14.044 1.512,14.052 C1.592,14.06 1.672,14.064 1.752,14.064 C1.832,14.08 1.912,14.092 1.992,14.1 C2.072,14.108 2.152,14.112 2.232,14.112 C2.744,14.112 3,13.648 3,12.72 L3,3.48 C3,2.584 2.752,2.112 2.256,2.064 C2.256,2.08 2.184,2.092 2.04,2.1 C1.896,2.108 1.784,2.12 1.704,2.136 C1.608,2.152 1.504,2.164 1.392,2.172 C1.28,2.18 1.184,2.184 1.104,2.184 C0.816,2.184 0.56,2.076 0.336,1.86 C0.112,1.644 0,1.4 0,1.128 C0,0.376 0.472,5.68434189e-14 1.416,5.68434189e-14 C1.448,5.68434189e-14 1.5,5.68434189e-14 1.572,5.68434189e-14 C1.644,5.68434189e-14 1.712,0.008 1.776,0.024 C1.968,0.04 2.164,0.06 2.364,0.084 C2.564,0.108 2.752,0.128 2.928,0.144 C3.088,0.16 3.26,0.172 3.444,0.18 C3.628,0.188 3.832,0.192 4.056,0.192 C4.28,0.192 4.508,0.188 4.74,0.18 C4.972,0.172 5.224,0.16 5.496,0.144 L5.64,0.144 L7.392,0.048 C7.68,0.032 7.964,0.02 8.244,0.012 C8.524,0.004 8.784,5.68434189e-14 9.024,5.68434189e-14 C12.656,5.68434189e-14 14.472,1.4 14.472,4.2 C14.472,5.848 13.816,6.984 12.504,7.608 Z M8.112,6.768 C8.72,6.768 9.252,6.728 9.708,6.648 C10.164,6.568 10.544,6.44 10.848,6.264 C11.488,5.912 11.808,5.264 11.808,4.32 C11.808,2.784 10.736,2.016 8.592,2.016 C7.376,2.016 6.568,2.104 6.168,2.28 C5.864,2.408 5.712,2.696 5.712,3.144 C5.712,3.256 5.708,3.376 5.7,3.504 C5.692,3.632 5.688,3.744 5.688,3.84 L5.688,6.504 C5.688,6.632 5.7,6.708 5.724,6.732 C5.748,6.756 5.824,6.768 5.952,6.768 L8.112,6.768 Z" id="形状"></path>
            <path d="M29.4,9.096 C29.4,9.464 29.392,9.752 29.376,9.96 C29.36,10.168 29.312,10.328 29.232,10.44 C29.152,10.552 29.036,10.62 28.884,10.644 C28.732,10.668 28.52,10.68 28.248,10.68 L21.024,10.68 C20.96,10.68 20.928,10.688 20.928,10.704 C20.928,11.776 21.24,12.648 21.864,13.32 C22.456,14.008 23.2,14.352 24.096,14.352 C24.688,14.352 25.224,14.192 25.704,13.872 C26.184,13.552 26.496,13.144 26.64,12.648 L26.856,12 C26.952,11.76 27.092,11.568 27.276,11.424 C27.46,11.28 27.688,11.208 27.96,11.208 C28.792,11.208 29.208,11.608 29.208,12.408 C29.208,13.496 28.648,14.456 27.528,15.288 C26.456,16.088 25.248,16.488 23.904,16.488 C22.176,16.488 20.808,15.92 19.8,14.784 C18.808,13.648 18.312,12.144 18.312,10.272 C18.312,8.384 18.84,6.816 19.896,5.568 C20.968,4.336 22.368,3.72 24.096,3.72 C24.896,3.72 25.608,3.848 26.232,4.104 C26.856,4.36 27.416,4.736 27.912,5.232 C28.904,6.272 29.4,7.56 29.4,9.096 Z M26.784,8.52 C26.784,7.8 26.52,7.176 25.992,6.648 C25.432,6.12 24.808,5.856 24.12,5.856 C23.416,5.856 22.728,6.144 22.056,6.72 C21.448,7.28 21.144,7.88 21.144,8.52 L26.784,8.52 Z" id="形状"></path>
            <path d="M41.16,16.392 C39.976,16.392 39.176,15.992 38.76,15.192 C37.912,16.056 36.736,16.488 35.232,16.488 C33.872,16.488 32.792,16.156 31.992,15.492 C31.192,14.828 30.792,13.944 30.792,12.84 C30.792,12.168 30.956,11.572 31.284,11.052 C31.612,10.532 32.056,10.112 32.616,9.792 C33.048,9.552 33.424,9.392 33.744,9.312 C34.048,9.232 34.664,9.136 35.592,9.024 C36.808,8.896 37.584,8.728 37.92,8.52 C38.192,8.328 38.328,7.968 38.328,7.44 C38.328,6.928 38.148,6.52 37.788,6.216 C37.428,5.912 36.92,5.76 36.264,5.76 C35.64,5.76 35.072,5.936 34.56,6.288 L34.56,6.264 C34.448,6.376 34.392,6.44 34.392,6.456 L34.416,6.456 C34.752,6.744 34.92,7.088 34.92,7.488 C34.92,7.888 34.772,8.216 34.476,8.472 C34.18,8.728 33.808,8.856 33.36,8.856 C32.848,8.856 32.424,8.692 32.088,8.364 C31.752,8.036 31.584,7.624 31.584,7.128 C31.584,6.168 32.056,5.36 33,4.704 C33.896,4.048 34.992,3.72 36.288,3.72 C39.312,3.72 40.824,5.152 40.824,8.016 L40.824,12.6 C40.824,12.92 40.828,13.188 40.836,13.404 C40.844,13.62 40.856,13.768 40.872,13.848 C40.952,14.2 41.08,14.376 41.256,14.376 C41.528,14.376 41.664,14 41.664,13.248 L41.664,12.12 C41.664,11.432 42.024,11.088 42.744,11.088 C43.512,11.088 43.896,11.552 43.896,12.48 L43.896,12.6 L43.872,13.896 C43.84,15.56 42.936,16.392 41.16,16.392 Z M38.28,10.656 C38.184,10.688 38.092,10.724 38.004,10.764 C37.916,10.804 37.816,10.84 37.704,10.872 C37.272,11.016 36.592,11.128 35.664,11.208 C34.16,11.352 33.408,11.888 33.408,12.816 C33.408,13.28 33.58,13.652 33.924,13.932 C34.268,14.212 34.744,14.352 35.352,14.352 C36.264,14.352 36.972,14.104 37.476,13.608 C37.98,13.112 38.24,12.432 38.256,11.568 L38.28,10.656 Z" id="形状"></path>
            <path d="M50.016,3.72 C50.624,3.72 51.18,3.812 51.684,3.996 C52.188,4.18 52.632,4.432 53.016,4.752 L53.016,3.48 C53.016,3.192 53.012,2.964 53.004,2.796 C52.996,2.628 52.984,2.504 52.968,2.424 C52.92,2.216 52.856,2.08 52.776,2.016 C52.712,2.032 52.62,2.044 52.5,2.052 C52.38,2.06 52.288,2.064 52.224,2.064 L52.272,2.064 C52.176,2.096 52.076,2.116 51.972,2.124 C51.868,2.132 51.776,2.136 51.696,2.136 C50.864,2.136 50.448,1.784 50.448,1.08 C50.448,0.36 50.96,5.68434189e-14 51.984,5.68434189e-14 C52.016,5.68434189e-14 52.072,5.68434189e-14 52.152,5.68434189e-14 C52.232,5.68434189e-14 52.312,0.008 52.392,0.024 C52.44,0.024 52.488,0.028 52.536,0.036 C52.584,0.044 52.632,0.048 52.68,0.048 L53.4,0.12 C53.432,0.12 53.5,0.116 53.604,0.108 C53.708,0.1 53.816,0.088 53.928,0.072 C54.056,0.056 54.172,0.044 54.276,0.036 C54.38,0.028 54.48,0.024 54.576,0.024 C55.264,0.024 55.608,0.44 55.608,1.272 L55.608,1.632 C55.592,1.648 55.584,1.808 55.584,2.112 C55.584,2.192 55.58,2.284 55.572,2.388 C55.564,2.492 55.56,2.6 55.56,2.712 C55.56,2.84 55.536,3.432 55.488,4.488 C55.488,4.568 55.484,4.656 55.476,4.752 C55.468,4.848 55.464,4.928 55.464,4.992 C55.448,5.248 55.44,5.476 55.44,5.676 C55.44,5.876 55.44,6.048 55.44,6.192 L55.44,8.424 L55.488,12.216 C55.504,12.728 55.52,13.128 55.536,13.416 C55.552,13.704 55.576,13.896 55.608,13.992 C55.608,14.088 55.664,14.136 55.776,14.136 C55.856,14.136 55.924,14.132 55.98,14.124 C56.036,14.116 56.096,14.104 56.16,14.088 C56.208,14.088 56.256,14.084 56.304,14.076 C56.352,14.068 56.392,14.064 56.424,14.064 C56.456,14.048 56.508,14.04 56.58,14.04 C56.652,14.04 56.704,14.04 56.736,14.04 C57.552,14.04 57.96,14.392 57.96,15.096 C57.96,15.832 57.488,16.2 56.544,16.2 C56.464,16.2 56.356,16.196 56.22,16.188 C56.084,16.18 55.952,16.168 55.824,16.152 C55.76,16.152 55.692,16.148 55.62,16.14 C55.548,16.132 55.472,16.12 55.392,16.104 C55.312,16.088 55.224,16.08 55.128,16.08 C55.112,16.08 55.096,16.084 55.08,16.092 C55.064,16.1 55.04,16.104 55.008,16.104 C54.976,16.104 54.936,16.104 54.888,16.104 C54.84,16.104 54.776,16.112 54.696,16.128 L54.744,16.128 C54.552,16.176 54.36,16.2 54.168,16.2 C53.656,16.2 53.336,15.952 53.208,15.456 C52.408,16.144 51.36,16.488 50.064,16.488 C48.368,16.488 47.032,15.888 46.056,14.688 C45.048,13.52 44.544,11.984 44.544,10.08 C44.544,9.152 44.676,8.296 44.94,7.512 C45.204,6.728 45.568,6.056 46.032,5.496 C47.024,4.312 48.352,3.72 50.016,3.72 Z M52.872,12.024 C52.904,11.768 52.928,11.484 52.944,11.172 C52.96,10.86 52.968,10.512 52.968,10.128 C52.968,9.632 52.956,9.22 52.932,8.892 C52.908,8.564 52.88,8.312 52.848,8.136 C52.72,7.4 52.44,6.864 52.008,6.528 C51.432,6.08 50.816,5.856 50.16,5.856 C49.216,5.856 48.48,6.228 47.952,6.972 C47.424,7.716 47.16,8.736 47.16,10.032 C47.16,11.392 47.436,12.452 47.988,13.212 C48.54,13.972 49.296,14.352 50.256,14.352 C50.976,14.352 51.572,14.14 52.044,13.716 C52.516,13.292 52.792,12.728 52.872,12.024 Z" id="形状"></path>
            <path d="M63.288,1.152 L63.192,4.728 C63.672,4.36 64.148,4.1 64.62,3.948 C65.092,3.796 65.632,3.72 66.24,3.72 C66.96,3.72 67.608,3.824 68.184,4.032 C68.76,4.24 69.252,4.536 69.66,4.92 C70.068,5.304 70.384,5.764 70.608,6.3 C70.832,6.836 70.944,7.432 70.944,8.088 L70.944,11.88 C70.944,12.344 70.944,12.704 70.944,12.96 C70.944,13.216 70.952,13.36 70.968,13.392 C71.016,13.904 71.088,14.16 71.184,14.16 C71.232,14.16 71.288,14.16 71.352,14.16 C71.416,14.16 71.496,14.144 71.592,14.112 C71.688,14.08 71.768,14.064 71.832,14.064 C71.896,14.064 71.976,14.064 72.072,14.064 C72.888,14.064 73.296,14.416 73.296,15.12 C73.296,15.84 72.8,16.2 71.808,16.2 C71.6,16.2 71.304,16.176 70.92,16.128 C70.6,16.096 70.312,16.068 70.056,16.044 C69.8,16.02 69.584,16.008 69.408,16.008 C69.248,16.008 69.092,16.012 68.94,16.02 C68.788,16.028 68.656,16.04 68.544,16.056 C67.936,16.152 67.528,16.2 67.32,16.2 C66.936,16.2 66.616,16.088 66.36,15.864 C66.104,15.64 65.976,15.36 65.976,15.024 C65.976,14.752 66.092,14.516 66.324,14.316 C66.556,14.116 66.832,14.016 67.152,14.016 C67.344,14.016 67.584,14.064 67.872,14.16 C67.904,14.16 67.944,14.164 67.992,14.172 C68.04,14.18 68.088,14.184 68.136,14.184 C68.312,14.184 68.416,13.8 68.448,13.032 C68.448,12.952 68.448,12.816 68.448,12.624 C68.448,12.432 68.456,12.208 68.472,11.952 C68.472,11.824 68.476,11.664 68.484,11.472 C68.492,11.28 68.496,11.12 68.496,10.992 L68.496,9.768 C68.496,8.296 68.36,7.312 68.088,6.816 C67.736,6.128 67.08,5.784 66.12,5.784 C65.064,5.784 64.296,6.144 63.816,6.864 C63.496,7.36 63.32,8.208 63.288,9.408 C63.288,9.68 63.284,9.952 63.276,10.224 C63.268,10.496 63.264,10.768 63.264,11.04 C63.264,11.088 63.264,11.164 63.264,11.268 C63.264,11.372 63.256,11.464 63.24,11.544 L63.24,11.928 C63.24,12.344 63.24,12.676 63.24,12.924 C63.24,13.172 63.248,13.328 63.264,13.392 C63.312,13.936 63.408,14.208 63.552,14.208 C63.584,14.208 63.64,14.2 63.72,14.184 C63.8,14.168 63.896,14.152 64.008,14.136 C64.088,14.104 64.18,14.084 64.284,14.076 C64.388,14.068 64.472,14.064 64.536,14.064 C65.288,14.064 65.664,14.4 65.664,15.072 C65.664,15.824 65.2,16.2 64.272,16.2 C64.032,16.2 63.696,16.176 63.264,16.128 C62.992,16.096 62.736,16.072 62.496,16.056 C62.256,16.04 62.04,16.032 61.848,16.032 C61.608,16.032 61.264,16.056 60.816,16.104 C60.496,16.136 60.236,16.16 60.036,16.176 C59.836,16.192 59.696,16.2 59.616,16.2 C58.736,16.2 58.296,15.816 58.296,15.048 C58.296,14.392 58.712,14.064 59.544,14.064 C59.768,14.064 59.944,14.08 60.072,14.112 L60.048,14.112 C60.176,14.144 60.28,14.16 60.36,14.16 C60.44,14.16 60.496,14.16 60.528,14.16 C60.56,14.16 60.584,14.024 60.6,13.752 C60.68,13.336 60.736,12.408 60.768,10.968 C60.768,10.296 60.772,9.616 60.78,8.928 C60.788,8.24 60.792,7.56 60.792,6.888 C60.792,4.664 60.744,3.248 60.648,2.64 C60.6,2.256 60.528,2.048 60.432,2.016 C60.416,2.032 60.364,2.044 60.276,2.052 C60.188,2.06 60.112,2.072 60.048,2.088 C59.952,2.12 59.848,2.136 59.736,2.136 C59.624,2.136 59.52,2.136 59.424,2.136 C58.656,2.136 58.272,1.792 58.272,1.104 C58.272,0.784 58.4,0.52 58.656,0.312 C58.912,0.104 59.224,5.68434189e-14 59.592,5.68434189e-14 C59.704,5.68434189e-14 59.976,0.024 60.408,0.072 L60.384,0.072 C60.528,0.088 60.672,0.1 60.816,0.108 C60.96,0.116 61.12,0.12 61.296,0.12 C61.328,0.12 61.404,0.116 61.524,0.108 C61.644,0.1 61.76,0.088 61.872,0.072 C61.952,0.056 62.036,0.044 62.124,0.036 C62.212,0.028 62.296,0.024 62.376,0.024 C62.984,0.024 63.288,0.384 63.288,1.104 L63.288,1.152 Z" id="路径"></path>
            <path d="M84.528,16.2 C83.92,16.2 83.576,15.952 83.496,15.456 C82.664,16.144 81.608,16.488 80.328,16.488 C78.392,16.488 77.04,15.88 76.272,14.664 C76.112,14.408 75.984,14.12 75.888,13.8 C75.792,13.48 75.736,13.16 75.72,12.84 C75.704,12.648 75.696,12.376 75.696,12.024 C75.696,11.672 75.696,11.264 75.696,10.8 L75.696,8.928 C75.696,7.056 75.6,6.12 75.408,6.12 C75.376,6.12 75.328,6.124 75.264,6.132 C75.2,6.14 75.128,6.152 75.048,6.168 C74.968,6.184 74.852,6.2 74.7,6.216 C74.548,6.232 74.488,6.24 74.52,6.24 C73.736,6.24 73.344,5.88 73.344,5.16 C73.344,4.472 73.8,4.128 74.712,4.128 C74.792,4.128 74.892,4.132 75.012,4.14 C75.132,4.148 75.256,4.16 75.384,4.176 C75.512,4.192 75.636,4.204 75.756,4.212 C75.876,4.22 75.976,4.224 76.056,4.224 C76.104,4.224 76.192,4.22 76.32,4.212 C76.448,4.204 76.576,4.184 76.704,4.152 C76.768,4.136 76.832,4.124 76.896,4.116 C76.96,4.108 77.04,4.104 77.136,4.104 C77.872,4.104 78.24,4.496 78.24,5.28 L78.24,5.76 L78.216,7.272 L78.144,8.952 L78.144,10.392 C78.144,11.048 78.172,11.6 78.228,12.048 C78.284,12.496 78.352,12.856 78.432,13.128 C78.736,13.944 79.448,14.352 80.568,14.352 C81.128,14.352 81.628,14.224 82.068,13.968 C82.508,13.712 82.816,13.368 82.992,12.936 C83.216,12.392 83.328,11.312 83.328,9.696 L83.328,6.96 C83.28,6.448 83.208,6.192 83.112,6.192 C83.048,6.192 82.936,6.208 82.776,6.24 L82.44,6.24 C81.656,6.24 81.264,5.896 81.264,5.208 C81.264,4.472 81.688,4.104 82.536,4.104 C82.616,4.104 82.712,4.108 82.824,4.116 C82.936,4.124 83.056,4.136 83.184,4.152 C83.312,4.168 83.432,4.18 83.544,4.188 C83.656,4.196 83.736,4.2 83.784,4.2 C83.832,4.2 83.9,4.2 83.988,4.2 C84.076,4.2 84.176,4.192 84.288,4.176 C84.384,4.16 84.484,4.148 84.588,4.14 C84.692,4.132 84.784,4.128 84.864,4.128 C85.584,4.128 85.944,4.472 85.944,5.16 C85.944,5.384 85.928,5.576 85.896,5.736 L85.896,5.712 C85.864,6 85.836,6.352 85.812,6.768 C85.788,7.184 85.776,7.664 85.776,8.208 L85.776,11.712 C85.776,12.608 85.784,13.096 85.8,13.176 C85.88,13.832 85.96,14.16 86.04,14.16 C86.072,14.16 86.128,14.156 86.208,14.148 C86.288,14.14 86.376,14.128 86.472,14.112 C86.552,14.096 86.66,14.08 86.796,14.064 C86.932,14.048 86.984,14.04 86.952,14.04 C87.736,14.04 88.128,14.392 88.128,15.096 C88.128,15.832 87.68,16.2 86.784,16.2 C86.72,16.2 86.644,16.2 86.556,16.2 C86.468,16.2 86.384,16.192 86.304,16.176 C86.272,16.176 86.24,16.172 86.208,16.164 C86.176,16.156 86.152,16.152 86.136,16.152 C85.752,16.104 85.536,16.08 85.488,16.08 C85.472,16.08 85.452,16.084 85.428,16.092 C85.404,16.1 85.376,16.104 85.344,16.104 C85.248,16.104 85.16,16.112 85.08,16.128 L85.104,16.128 C84.912,16.176 84.72,16.2 84.528,16.2 Z" id="路径"></path>
            <path d="M92.784,1.296 C92.752,1.616 92.724,1.896 92.7,2.136 C92.676,2.376 92.656,2.62 92.64,2.868 C92.624,3.116 92.608,3.388 92.592,3.684 C92.576,3.98 92.568,4.344 92.568,4.776 C92.984,4.36 93.416,4.08 93.864,3.936 C94.312,3.792 94.872,3.72 95.544,3.72 C97.192,3.72 98.496,4.288 99.456,5.424 C100.416,6.56 100.896,8.04 100.896,9.864 C100.896,10.824 100.756,11.712 100.476,12.528 C100.196,13.344 99.824,14.056 99.36,14.664 C98.864,15.272 98.272,15.728 97.584,16.032 C96.896,16.336 96.12,16.488 95.256,16.488 C94.024,16.488 93.04,16.168 92.304,15.528 C92.176,16.04 91.8,16.296 91.176,16.296 C90.376,16.296 89.976,15.808 89.976,14.832 C89.976,14.72 89.976,14.616 89.976,14.52 C89.976,14.424 89.984,14.344 90,14.28 C90,14.104 90,13.928 90,13.752 C90,13.576 90.008,13.4 90.024,13.224 L90.096,11.472 C90.096,11.152 90.104,10.772 90.12,10.332 C90.136,9.892 90.144,9.512 90.144,9.192 L90.096,3.12 C90.08,2.688 90.052,2.396 90.012,2.244 C89.972,2.092 89.904,2.016 89.808,2.016 C89.744,2.016 89.56,2.048 89.256,2.112 C89.176,2.128 89.096,2.136 89.016,2.136 C88.936,2.136 88.856,2.136 88.776,2.136 C88.008,2.136 87.624,1.792 87.624,1.104 C87.624,0.384 88.056,0.024 88.92,0.024 C89,0.024 89.092,0.024 89.196,0.024 C89.3,0.024 89.384,0.032 89.448,0.048 L89.904,0.12 C89.936,0.12 89.976,0.124 90.024,0.132 C90.072,0.14 90.112,0.144 90.144,0.144 C90.224,0.16 90.292,0.168 90.348,0.168 C90.404,0.168 90.456,0.168 90.504,0.168 C90.568,0.168 90.664,0.16 90.792,0.144 C90.92,0.128 91.056,0.104 91.2,0.072 C91.44,0.024 91.672,5.68434189e-14 91.896,5.68434189e-14 C92.488,5.68434189e-14 92.784,0.32 92.784,0.96 L92.784,1.296 Z M92.76,7.944 C92.648,8.392 92.592,9.048 92.592,9.912 C92.592,11.32 92.704,12.312 92.928,12.888 C93.36,13.864 94.136,14.352 95.256,14.352 C96.2,14.352 96.94,13.968 97.476,13.2 C98.012,12.432 98.28,11.4 98.28,10.104 C98.28,8.776 98.024,7.736 97.512,6.984 C97,6.232 96.296,5.856 95.4,5.856 C95.08,5.856 94.776,5.908 94.488,6.012 C94.2,6.116 93.936,6.26 93.696,6.444 C93.456,6.628 93.256,6.848 93.096,7.104 C92.936,7.36 92.824,7.64 92.76,7.944 Z" id="形状"></path>
        </g>
    </g>
</svg>